<svg height="512pt" viewBox="-46 0 512 512" width="512pt" xmlns="http://www.w3.org/2000/svg"><path d="m420 0v422l-420 45v-422c0-24.902344 20.097656-45 45-45zm0 0" fill="#68544f"/><path d="m420 0v422l-210 22.5v-444.5zm0 0" fill="#53433f"/><path d="m111.210938 121 45.761718 45.757812-21.210937 21.210938-45.761719-45.757812zm0 0" fill="#e2e2e7"/><path d="m284.238281 294.023438 56.367188 56.367187-21.210938 21.210937-56.367187-56.367187zm0 0" fill="#d3d3d8"/><path d="m308.789062 120.996094 21.210938 21.210937-45.761719 45.761719-21.210937-21.210938zm0 0" fill="#d3d3d8"/><path d="m135.761719 294.023438 21.210937 21.210937-56.367187 56.367187-21.210938-21.210937zm0 0" fill="#e2e2e7"/><path d="m330 151c-16.539062 0-30-13.460938-30-30s13.460938-30 30-30 30 13.460938 30 30-13.460938 30-30 30zm0 0" fill="#ff4b00"/><path d="m90 151c-16.539062 0-30-13.460938-30-30s13.460938-30 30-30 30 13.460938 30 30-13.460938 30-30 30zm0 0" fill="#ff7816"/><path d="m315 241c0 12.300781-2.402344 24-6.300781 34.800781-2.101563 5.398438-34.5-19.203125-37.199219-14.402343-2.101562 4.203124 25.199219 38.402343 22.199219 42.300781-6 7.800781-13.199219 15-21 21-5.402344 3.898437-40.800781-22.5-46.800781-19.800781-3.601563 1.800781 22.800781 33.300781 18.898437 34.800781-10.796875 3.898437-22.496094 6.300781-34.796875 6.300781-57.898438 0-105-47.101562-105-105 0-12.300781 2.402344-24 6.300781-34.800781 1.5-4.199219 33 22.199219 35.097657 18.300781 2.699218-5.699219-24-41.101562-20.097657-46.199219 6-7.800781 13.199219-15 21-21 4.199219-3.300781 38.699219 24 43.199219 21.597657 4.800781-2.699219-20.398438-34.800782-15.296875-36.597657 10.796875-3.902343 22.496094-6.300781 34.796875-6.300781 57.898438 0 105 47.101562 105 105zm0 0" fill="#ff9f00"/><path d="m244.800781 339.699219c-10.800781 3.898437-22.5 6.300781-34.800781 6.300781v-210c57.898438 0 105 47.101562 105 105 0 12.300781-2.402344 24-6.300781 34.800781-2.101563 5.398438-34.5-19.203125-37.199219-14.402343-2.101562 4.203124 25.199219 38.402343 22.199219 42.300781-6 7.800781-13.199219 15-21 21-5.402344 3.898437-40.800781-22.5-46.800781-19.800781-3.597657 1.800781 22.800781 33.300781 18.902343 34.800781zm0 0" fill="#ff7816"/><path d="m308.699219 275.800781c-3.601563 10.199219-8.699219 19.5-15 27.898438l-146.398438-146.398438c8.398438-6.300781 17.699219-11.402343 27.898438-15zm0 0" fill="#fdbf00"/><path d="m272.699219 324.699219c-8.398438 6.300781-17.699219 11.398437-27.898438 15l-133.5-133.5c3.601563-10.199219 8.699219-19.5 15-27.898438zm0 0" fill="#fdbf00"/><path d="m210 262 62.699219 62.699219c-8.398438 6.300781-17.699219 11.398437-27.898438 15l-34.800781-34.800781zm0 0" fill="#ff9f00"/><path d="m308.699219 275.800781c-3.601563 10.199219-8.699219 19.5-15 27.898438l-83.699219-83.699219v-42.898438zm0 0" fill="#ff9f00"/><path d="m382.5 453.5-22.5 13.5 22.5 13.5 22.5 1.5h15v30h-375c-24.902344 0-45-20.101562-45-45 0-24.902344 20.097656-45 45-45h375v30h-15zm0 0" fill="#ff4b00"/><path d="m382.5 453.5-22.5 13.5 22.5 13.5 22.5 1.5h15v30h-210v-90h210v30h-15zm0 0" fill="#dd3400"/><path d="m405 482h-360c-8.402344 0-15-6.601562-15-15 0-8.402344 6.597656-15 15-15h360c-8.402344 0-15 6.597656-15 15 0 8.398438 6.597656 15 15 15zm0 0" fill="#e2e2e7"/><path d="m405 482h-195v-30h195c-8.402344 0-15 6.597656-15 15 0 8.398438 6.597656 15 15 15zm0 0" fill="#d3d3d8"/></svg>