<?xml version="1.0" encoding="iso-8859-1"?>
<!-- Generator: Adobe Illustrator 19.0.0, SVG Export Plug-In . SVG Version: 6.00 Build 0)  -->
<svg version="1.1" id="Capa_1" xmlns="http://www.w3.org/2000/svg" xmlns:xlink="http://www.w3.org/1999/xlink" x="0px" y="0px"
	 viewBox="0 0 512 512" style="enable-background:new 0 0 512 512;" xml:space="preserve">
<rect x="204.8" y="412.588" style="fill:#ABBACD;" width="102.4" height="62.295"/>
<rect x="204.8" y="412.588" style="fill:#91A4B6;" width="102.4" height="28.209"/>
<path style="fill:#BAC7D9;" d="M494.933,76.801c9.426,0,17.067,7.641,17.067,17.067v307.199c0,9.426-7.641,17.067-17.067,17.067
	H17.067C7.641,418.133,0,410.492,0,401.067V93.868c0-9.426,7.641-17.067,17.067-17.067C17.067,76.801,494.933,76.801,494.933,76.801
	z"/>
<path style="fill:#A5B5CC;" d="M494.933,76.801H472.27c9.426,0,17.067,7.641,17.067,17.067v307.199
	c0,9.426-7.641,17.067-17.067,17.067h22.663c9.426,0,17.067-7.641,17.067-17.067V93.868C512,84.442,504.359,76.801,494.933,76.801z"
	/>
<circle style="fill:#D7DCF2;" cx="256" cy="384" r="12.801"/>
<path style="fill:#474855;" d="M512,349.866V93.868c0-9.426-7.641-17.067-17.067-17.067H17.067C7.641,76.801,0,84.442,0,93.868
	v255.998H512z"/>
<path style="fill:#3C3C47;" d="M494.933,76.801h-22.664c9.426,0,17.067,7.641,17.067,17.067v255.998H512V93.868
	C512,84.442,504.359,76.801,494.933,76.801z"/>
<path style="fill:#FFFFFF;" d="M25.6,108.582v209.503c0,3.414,2.767,6.181,6.181,6.181h448.438c3.414,0,6.181-2.767,6.181-6.181
	V108.582c0-3.414-2.767-6.181-6.181-6.181H31.781C28.367,102.401,25.6,105.168,25.6,108.582z"/>
<path style="fill:#92D782;" d="M486.398,145.066H25.601v-36.484c0-3.414,2.767-6.181,6.181-6.181H480.22
	c3.414,0,6.181,2.768,6.181,6.181L486.398,145.066z"/>
<path style="fill:#FFFFFF;" d="M68.266,131.46H51.201c-4.267,0-7.726-3.459-7.726-7.726c0-4.267,3.459-7.726,7.726-7.726h17.065
	c4.267,0,7.726,3.459,7.726,7.726C75.992,128.001,72.533,131.46,68.266,131.46z"/>
<path style="fill:#BAC7D9;" d="M369.286,503.468h-226.57c-3.414,0-6.181-2.767-6.181-6.181v-21.772c0-3.414,2.767-6.181,6.181-6.181
	h226.571c3.414,0,6.181,2.767,6.181,6.181v21.772C375.467,500.7,372.7,503.468,369.286,503.468z"/>
<path style="fill:#A5B5CC;" d="M369.286,469.334h-22.664c3.414,0,6.181,2.767,6.181,6.181v21.771c0,3.414-2.767,6.181-6.181,6.181
	h22.664c3.414,0,6.181-2.767,6.181-6.181v-21.771C375.467,472.101,372.7,469.334,369.286,469.334z"/>
<path style="fill:#474855;" d="M386.352,281.599H125.648c-3.414,0-6.181-2.767-6.181-6.181V14.713c0-3.414,2.767-6.181,6.181-6.181
	h260.703c3.414,0,6.181,2.767,6.181,6.181v260.705C392.533,278.832,389.766,281.599,386.352,281.599z"/>
<path style="fill:#ABECFD;" d="M392.533,51.201H119.469V14.713c0-3.414,2.767-6.181,6.181-6.181h260.702
	c3.414,0,6.181,2.767,6.181,6.181V51.201z"/>
<g>
	<path style="fill:#FFFFFF;" d="M162.135,37.593h-17.066c-4.267,0-7.726-3.458-7.726-7.726s3.459-7.726,7.726-7.726h17.066
		c4.267,0,7.726,3.458,7.726,7.726S166.402,37.593,162.135,37.593z"/>
	<path style="fill:#FFFFFF;" d="M290.141,118.661c-2.497,0-4.947-1.208-6.436-3.442c-2.366-3.55-1.407-8.349,2.144-10.714
		l15.956-10.638l-15.957-10.64c-3.55-2.367-4.509-7.165-2.143-10.715c2.367-3.549,7.165-4.508,10.715-2.142l25.6,17.069
		c2.149,1.434,3.44,3.846,3.44,6.428c0,2.584-1.291,4.996-3.441,6.428l-25.6,17.065
		C293.102,118.241,291.613,118.661,290.141,118.661z"/>
	<path style="fill:#FFFFFF;" d="M221.86,118.661c-1.473,0-2.962-0.42-4.279-1.299l-25.6-17.068c-2.15-1.433-3.44-3.845-3.44-6.428
		c0-2.584,1.291-4.996,3.441-6.428l25.6-17.066c3.55-2.366,8.348-1.407,10.714,2.143c2.367,3.55,1.407,8.348-2.143,10.714
		l-15.958,10.638l15.958,10.64c3.55,2.367,4.51,7.164,2.143,10.714C226.807,117.453,224.356,118.661,221.86,118.661z"/>
</g>
<path style="fill:#FFDF8C;" d="M247.46,118.662c-1.162,0-2.34-0.263-3.449-0.818c-3.817-1.909-5.363-6.549-3.455-10.367
	l17.066-34.133c1.909-3.816,6.55-5.364,10.366-3.455c3.817,1.909,5.364,6.549,3.455,10.367l-17.066,34.133
	C253.023,117.098,250.294,118.662,247.46,118.662z"/>
<path style="fill:#FF5A6A;" d="M170.667,152.792h-17.068c-4.267,0-7.726-3.458-7.726-7.726c0-4.268,3.459-7.726,7.726-7.726h17.068
	c4.267,0,7.726,3.458,7.726,7.726C178.393,149.334,174.934,152.792,170.667,152.792z"/>
<path style="fill:#FFFFFF;" d="M290.134,152.794H204.8c-4.267,0-7.726-3.458-7.726-7.726c0-4.268,3.459-7.726,7.726-7.726h85.334
	c4.267,0,7.726,3.458,7.726,7.726C297.86,149.336,294.401,152.794,290.134,152.794z"/>
<path style="fill:#FFDF8C;" d="M358.399,152.792h-34.133c-4.267,0-7.726-3.458-7.726-7.726c0-4.268,3.459-7.726,7.726-7.726h34.133
	c4.267,0,7.726,3.458,7.726,7.726C366.125,149.334,362.667,152.792,358.399,152.792z"/>
<path style="fill:#FF5A6A;" d="M170.667,229.594h-17.068c-4.267,0-7.726-3.458-7.726-7.726c0-4.268,3.459-7.726,7.726-7.726h17.068
	c4.267,0,7.726,3.458,7.726,7.726C178.393,226.135,174.934,229.594,170.667,229.594z"/>
<path style="fill:#FFFFFF;" d="M290.134,229.595H204.8c-4.267,0-7.726-3.458-7.726-7.726c0-4.268,3.459-7.726,7.726-7.726h85.334
	c4.267,0,7.726,3.458,7.726,7.726C297.86,226.136,294.401,229.595,290.134,229.595z"/>
<path style="fill:#FFDF8C;" d="M358.399,229.594h-34.133c-4.267,0-7.726-3.458-7.726-7.726c0-4.268,3.459-7.726,7.726-7.726h34.133
	c4.267,0,7.726,3.458,7.726,7.726C366.125,226.135,362.667,229.594,358.399,229.594z"/>
<path style="fill:#ABECFD;" d="M221.867,178.394h-34.135c-4.267,0-7.726-3.458-7.726-7.726c0-4.268,3.459-7.726,7.726-7.726h34.135
	c4.267,0,7.726,3.458,7.726,7.726C229.593,174.935,226.134,178.394,221.867,178.394z"/>
<path style="fill:#92D782;" d="M358.401,178.394H255.999c-4.267,0-7.726-3.458-7.726-7.726c0-4.268,3.459-7.726,7.726-7.726h102.402
	c4.267,0,7.726,3.458,7.726,7.726C366.127,174.935,362.668,178.394,358.401,178.394z"/>
<path style="fill:#ABECFD;" d="M221.867,203.994h-34.135c-4.267,0-7.726-3.458-7.726-7.726c0-4.268,3.459-7.726,7.726-7.726h34.135
	c4.267,0,7.726,3.458,7.726,7.726C229.593,200.536,226.134,203.994,221.867,203.994z"/>
<path style="fill:#92D782;" d="M358.401,203.994H255.999c-4.267,0-7.726-3.458-7.726-7.726c0-4.268,3.459-7.726,7.726-7.726h102.402
	c4.267,0,7.726,3.458,7.726,7.726C366.127,200.536,362.668,203.994,358.401,203.994z"/>
<path style="fill:#ABECFD;" d="M221.867,255.192h-34.135c-4.267,0-7.726-3.458-7.726-7.726c0-4.268,3.459-7.726,7.726-7.726h34.135
	c4.267,0,7.726,3.458,7.726,7.726C229.593,251.734,226.134,255.192,221.867,255.192z"/>
<path style="fill:#92D782;" d="M358.401,255.192H255.999c-4.267,0-7.726-3.458-7.726-7.726c0-4.268,3.459-7.726,7.726-7.726h102.402
	c4.267,0,7.726,3.458,7.726,7.726C366.127,251.734,362.668,255.192,358.401,255.192z"/>
<path style="fill:#8DDDF2;" d="M392.533,51.201h-22.664V8.533h16.483c3.414,0,6.181,2.767,6.181,6.181V51.201z"/>
<path style="fill:#3C3C47;" d="M386.352,281.599h-16.483V51.201h22.664v224.217C392.533,278.832,389.765,281.599,386.352,281.599z"
	/>
<g>
</g>
<g>
</g>
<g>
</g>
<g>
</g>
<g>
</g>
<g>
</g>
<g>
</g>
<g>
</g>
<g>
</g>
<g>
</g>
<g>
</g>
<g>
</g>
<g>
</g>
<g>
</g>
<g>
</g>
</svg>
