<?xml version="1.0" encoding="iso-8859-1"?>
<!-- Generator: Adobe Illustrator 19.0.0, SVG Export Plug-In . SVG Version: 6.00 Build 0)  -->
<svg version="1.1" id="Capa_1" xmlns="http://www.w3.org/2000/svg" xmlns:xlink="http://www.w3.org/1999/xlink" x="0px" y="0px"
	 viewBox="0 0 512 512" style="enable-background:new 0 0 512 512;" xml:space="preserve">
<rect x="204.8" y="412.587" style="fill:#ABBACD;" width="102.4" height="62.295"/>
<rect x="204.8" y="412.587" style="fill:#91A4B6;" width="102.4" height="28.209"/>
<path style="fill:#BAC7D9;" d="M494.933,76.8c9.426,0,17.067,7.641,17.067,17.067v307.199c0,9.426-7.641,17.067-17.067,17.067
	H17.067C7.641,418.133,0,410.491,0,401.066V93.867C0,84.441,7.641,76.8,17.067,76.8C17.067,76.8,494.933,76.8,494.933,76.8z"/>
<path style="fill:#A5B5CC;" d="M494.933,76.8H472.27c9.426,0,17.067,7.641,17.067,17.067v307.199
	c0,9.426-7.641,17.067-17.067,17.067h22.663c9.426,0,17.067-7.641,17.067-17.067V93.867C512,84.441,504.359,76.8,494.933,76.8z"/>
<circle style="fill:#D7DCF2;" cx="256" cy="384" r="12.801"/>
<path style="fill:#474855;" d="M512,349.865V93.867c0-9.426-7.641-17.067-17.067-17.067H17.067C7.641,76.8,0,84.441,0,93.867
	v255.998H512z"/>
<path style="fill:#3C3C47;" d="M494.933,76.8h-22.664c9.426,0,17.067,7.641,17.067,17.067v255.998H512V93.867
	C512,84.441,504.359,76.8,494.933,76.8z"/>
<path style="fill:#FFFFFF;" d="M25.6,108.581v209.503c0,3.414,2.767,6.181,6.181,6.181h448.438c3.414,0,6.181-2.767,6.181-6.181
	V108.581c0-3.414-2.767-6.181-6.181-6.181H31.781C28.367,102.4,25.6,105.167,25.6,108.581z"/>
<path style="fill:#FF5A6A;" d="M486.398,145.066H25.601v-36.485c0-3.414,2.767-6.181,6.181-6.181H480.22
	c3.414,0,6.181,2.768,6.181,6.181L486.398,145.066z"/>
<path style="fill:#FFFFFF;" d="M68.266,131.459H51.201c-4.267,0-7.726-3.459-7.726-7.726c0-4.267,3.459-7.726,7.726-7.726h17.065
	c4.267,0,7.726,3.459,7.726,7.726C75.992,128,72.533,131.459,68.266,131.459z"/>
<path style="fill:#BAC7D9;" d="M369.286,503.467h-226.57c-3.414,0-6.181-2.767-6.181-6.181v-21.771c0-3.414,2.767-6.181,6.181-6.181
	h226.571c3.414,0,6.181,2.767,6.181,6.181v21.771C375.467,500.699,372.7,503.467,369.286,503.467z"/>
<path style="fill:#A5B5CC;" d="M369.286,469.333h-22.664c3.414,0,6.181,2.767,6.181,6.181v21.771c0,3.414-2.767,6.181-6.181,6.181
	h22.664c3.414,0,6.181-2.767,6.181-6.181v-21.771C375.467,472.101,372.7,469.333,369.286,469.333z"/>
<path style="fill:#FFDF8C;" d="M366.933,25.6c0-9.426-7.641-17.067-17.067-17.067H162.133c-9.426,0-17.067,7.641-17.067,17.067
	v238.934c0,9.426,7.641,17.067,17.067,17.067h187.733c9.426,0,17.067-7.641,17.067-17.067L366.933,25.6L366.933,25.6z"/>
<path style="fill:#FFC880;" d="M349.867,8.533h-22.665c9.426,0,17.067,7.641,17.067,17.067v238.934
	c0,9.426-7.641,17.067-17.067,17.067h22.665c9.426,0,17.067-7.641,17.067-17.067V25.6C366.933,16.175,359.292,8.533,349.867,8.533z"
	/>
<g>
	<path style="fill:#FFAA6E;" d="M187.735,51.2c-7.07,0-12.801,5.731-12.801,12.801s5.731,12.801,12.801,12.801h-0.002
		c7.07,0,12.801-5.731,12.801-12.801S194.802,51.2,187.732,51.2H187.735z"/>
	<path style="fill:#FFAA6E;" d="M187.735,132.264c-7.07,0-12.801,5.731-12.801,12.801c0,7.07,5.731,12.801,12.801,12.801h-0.002
		c7.07,0,12.801-5.731,12.801-12.801c0-7.07-5.731-12.801-12.801-12.801H187.735z"/>
	<path style="fill:#FFAA6E;" d="M187.735,213.334c-7.07,0-12.801,5.731-12.801,12.801c0,7.07,5.731,12.801,12.801,12.801h-0.002
		c7.07,0,12.801-5.731,12.801-12.801s-5.731-12.801-12.801-12.801H187.735z"/>
</g>
<g>
	<path style="fill:#474855;" d="M332.799,233.861h-102.4c-4.267,0-7.726-3.458-7.726-7.726c0-4.268,3.459-7.726,7.726-7.726h102.4
		c4.267,0,7.726,3.458,7.726,7.726C340.525,230.402,337.066,233.861,332.799,233.861z"/>
	<path style="fill:#474855;" d="M281.599,152.794h-51.2c-4.267,0-7.726-3.458-7.726-7.726s3.459-7.726,7.726-7.726h51.2
		c4.267,0,7.726,3.458,7.726,7.726S285.866,152.794,281.599,152.794z"/>
	<path style="fill:#474855;" d="M332.799,71.727h-102.4c-4.267,0-7.726-3.458-7.726-7.726s3.459-7.726,7.726-7.726h102.4
		c4.267,0,7.726,3.458,7.726,7.726C340.525,68.269,337.066,71.727,332.799,71.727z"/>
</g>
<polygon style="fill:#FFFFFF;" points="238.932,226.135 287.205,214.066 401.852,99.42 365.648,63.216 251.002,177.863 "/>
<rect x="288.756" y="86.712" transform="matrix(-0.7071 -0.7071 0.7071 -0.7071 430.0693 479.5641)" style="fill:#ABECFD;" width="51.198" height="127.999"/>
<rect x="250.371" y="142.982" transform="matrix(0.7071 -0.7071 0.7071 0.7071 -14.4902 266.435)" style="fill:#8DDDF2;" width="127.999" height="15.453"/>
<rect x="346.081" y="76.332" transform="matrix(0.7071 0.7071 -0.7071 0.7071 174.9041 -235.462)" style="fill:#92D782;" width="51.198" height="34.13"/>
<g>
</g>
<g>
</g>
<g>
</g>
<g>
</g>
<g>
</g>
<g>
</g>
<g>
</g>
<g>
</g>
<g>
</g>
<g>
</g>
<g>
</g>
<g>
</g>
<g>
</g>
<g>
</g>
<g>
</g>
</svg>
